{
  "accessors": [
    {
      "bufferView": 2,
      "componentType": 5126,
      "count": 2658,
      "max": [
        46.649799346923828,
        186.541259765625,
        35.738693237304688
      ],
      "min": [
        -53.602027893066406,
        -1.4292612075805664,
        -38.266319274902344
      ],
      "type": "VEC3"
    },
    {
      "bufferView": 2,
      "byteOffset": 31896,
      "componentType": 5126,
      "count": 2658,
      "max": [
        0.99775314331054688,
        0.9999995231628418,
        0.99723285436630249
      ],
      "min": [
        -0.99785643815994263,
        -0.99999964237213135,
        -0.99990558624267578
      ],
      "type": "VEC3"
    },
    {
      "bufferView": 1,
      "componentType": 5126,
      "count": 2658,
      "max": [
        0.98554122447967529,
        0.95144110918045044
      ],
      "min": [
        0.012497169896960258,
        0.07773454487323761
      ],
      "type": "VEC2"
    },
    {
      "bufferView": 0,
      "componentType": 5125,
      "count": 7224,
      "max": [
        2657
      ],
      "min": [
        0
      ],
      "type": "SCALAR"
    },
    {
      "bufferView": 2,
      "byteOffset": 63792,
      "componentType": 5126,
      "count": 502,
      "max": [
        41.867599487304688,
        148.43583679199219,
        27.194284439086914
      ],
      "min": [
        -64.83172607421875,
        26.346256256103516,
        -54.825225830078125
      ],
      "type": "VEC3"
    },
    {
      "bufferView": 2,
      "byteOffset": 69816,
      "componentType": 5126,
      "count": 502,
      "max": [
        0.99389249086380005,
        0.9952276349067688,
        0.99224120378494263
      ],
      "min": [
        -0.99390101432800293,
        -0.98953324556350708,
        -0.99291312694549561
      ],
      "type": "VEC3"
    },
    {
      "bufferView": 1,
      "byteOffset": 21264,
      "componentType": 5126,
      "count": 502,
      "max": [
        0.94204241037368774,
        0.93954658508300781
      ],
      "min": [
        0.032660908997058868,
        0.16383951902389526
      ],
      "type": "VEC2"
    },
    {
      "bufferView": 0,
      "byteOffset": 28896,
      "componentType": 5125,
      "count": 1236,
      "max": [
        501
      ],
      "min": [
        0
      ],
      "type": "SCALAR"
    }
  ],
  "asset": {
    "extras": {
      "author": "BitGem (https://sketchfab.com/bitgem)",
      "license": "CC-BY-4.0 (http://creativecommons.org/licenses/by/4.0/)",
      "source": "https://sketchfab.com/3d-models/police-officer-redford-proto-series-free-640fb510c1f248219dbb3baf452bb4d2",
      "title": "Police Officer Redford - Proto Series - Free"
    },
    "generator": "Sketchfab-7.39.0",
    "version": "2.0"
  },
  "bufferViews": [
    {
      "buffer": 0,
      "byteLength": 33840,
      "byteOffset": 0,
      "name": "floatBufferViews",
      "target": 34963
    },
    {
      "buffer": 0,
      "byteLength": 25280,
      "byteOffset": 33840,
      "byteStride": 8,
      "name": "floatBufferViews",
      "target": 34962
    },
    {
      "buffer": 0,
      "byteLength": 75840,
      "byteOffset": 59120,
      "byteStride": 12,
      "name": "floatBufferViews",
      "target": 34962
    }
  ],
  "buffers": [
    {
      "byteLength": 134960,
      "uri": "scene.bin"
    }
  ],
  "images": [
    {
      "uri": "textures/cop_blue_mat_baseColor.png"
    },
    {
      "uri": "textures/cop_blue_mat_metallicRoughness.png"
    }
  ],
  "materials": [
    {
      "doubleSided": true,
      "emissiveFactor": [
        0,
        0,
        0
      ],
      "name": "cop_blue_mat",
      "pbrMetallicRoughness": {
        "baseColorFactor": [
          1,
          1,
          1,
          1
        ],
        "baseColorTexture": {
          "index": 0,
          "texCoord": 0
        },
        "metallicFactor": 1,
        "metallicRoughnessTexture": {
          "index": 1,
          "texCoord": 0
        },
        "roughnessFactor": 1
      }
    },
    {
      "doubleSided": true,
      "emissiveFactor": [
        0,
        0,
        0
      ],
      "name": "cop_accessoriescop_blue_mat",
      "pbrMetallicRoughness": {
        "baseColorFactor": [
          1,
          1,
          1,
          1
        ],
        "baseColorTexture": {
          "index": 0,
          "texCoord": 0
        },
        "metallicFactor": 1,
        "metallicRoughnessTexture": {
          "index": 1,
          "texCoord": 0
        },
        "roughnessFactor": 1
      }
    }
  ],
  "meshes": [
    {
      "name": "male_head_cop2_cop_blue_mat_0",
      "primitives": [
        {
          "attributes": {
            "NORMAL": 1,
            "POSITION": 0,
            "TEXCOORD_0": 2
          },
          "indices": 3,
          "material": 0,
          "mode": 4
        }
      ]
    },
    {
      "name": "male_head_cop2_cop_accessories:cop_blue_mat_0",
      "primitives": [
        {
          "attributes": {
            "NORMAL": 5,
            "POSITION": 4,
            "TEXCOORD_0": 6
          },
          "indices": 7,
          "material": 1,
          "mode": 4
        }
      ]
    }
  ],
  "nodes": [
    {
      "children": [
        1
      ],
      "name": "RootNode (gltf orientation matrix)",
      "rotation": [
        -0.70710678118654746,
        -0,
        -0,
        0.70710678118654757
      ]
    },
    {
      "children": [
        2
      ],
      "name": "RootNode (model correction matrix)"
    },
    {
      "children": [
        3
      ],
      "matrix": [
        1,
        0,
        0,
        0,
        0,
        0,
        1,
        0,
        0,
        -1,
        0,
        0,
        0,
        0,
        0,
        1
      ],
      "name": "f7b3038b1fa64734bd884936b16d64f9.fbx"
    },
    {
      "children": [
        4
      ],
      "name": "RootNode"
    },
    {
      "children": [
        5,
        6
      ],
      "name": "male_head_cop2"
    },
    {
      "mesh": 0,
      "name": "male_head_cop2_cop_blue_mat_0"
    },
    {
      "mesh": 1,
      "name": "male_head_cop2_cop_accessories:cop_blue_mat_0"
    }
  ],
  "samplers": [
    {
      "magFilter": 9729,
      "minFilter": 9987,
      "wrapS": 10497,
      "wrapT": 10497
    }
  ],
  "scene": 0,
  "scenes": [
    {
      "name": "OSG_Scene",
      "nodes": [
        0
      ]
    }
  ],
  "textures": [
    {
      "sampler": 0,
      "source": 0
    },
    {
      "sampler": 0,
      "source": 1
    }
  ]
}

